<?xml version="1.0" encoding="UTF-8" standalone="no"?>
<!-- Uploaded to: SVG Repo, www.svgrepo.com, Generator: SVG Repo Mixer Tools -->

<svg
   width="800px"
   height="800px"
   viewBox="0 0 32 32"
   version="1.1"
   id="svg3"
   sodipodi:docname="atencion.svg"
   inkscape:version="1.4.2 (1:1.4.2+202505120737+ebf0e940d0)"
   xmlns:inkscape="http://www.inkscape.org/namespaces/inkscape"
   xmlns:sodipodi="http://sodipodi.sourceforge.net/DTD/sodipodi-0.dtd"
   xmlns="http://www.w3.org/2000/svg"
   xmlns:svg="http://www.w3.org/2000/svg">
  <sodipodi:namedview
     id="namedview3"
     pagecolor="#ffffff"
     bordercolor="#000000"
     borderopacity="0.25"
     inkscape:showpageshadow="2"
     inkscape:pageopacity="0.0"
     inkscape:pagecheckerboard="0"
     inkscape:deskcolor="#d1d1d1"
     inkscape:zoom="1.00375"
     inkscape:cx="399.50187"
     inkscape:cy="400"
     inkscape:window-width="1920"
     inkscape:window-height="1012"
     inkscape:window-x="0"
     inkscape:window-y="0"
     inkscape:window-maximized="1"
     inkscape:current-layer="svg3" />
  <defs
     id="defs1">
    <style
       id="style1">.cls-1{fill:#04009a;}.cls-2{fill:#77acf1;}</style>
  </defs>
  <path
     class="cls-1"
     d="m 32,16.8 a 1.1,1.1 0 0 1 -0.15,0.8 L 24,28 a 5,5 0 0 1 -4,2 h -8.34 a 3,3 0 0 0 -2.12,0.88 l -0.83,0.83 a 1,1 0 0 1 -1.42,0 1,1 0 0 1 0,-1.42 L 8.12,29.46 A 5,5 0 0 1 11.66,28 H 20 a 3,3 0 0 0 2.4,-1.2 l 7.07,-9.42 a 3,3 0 0 0 -3,0.92 l -4.59,5.23 A 1,1 0 0 1 21,24 h -8 a 1,1 0 0 1 0,-2 h 7 A 2,2 0 0 0 18,20 H 17.07 A 4.52,4.52 0 0 1 14.55,19.24 7.35,7.35 0 0 0 5.26,20.16 L 1.71,23.71 A 1.0040916,1.0040916 0 0 1 0.29,22.29 L 3.84,18.74 A 9.38,9.38 0 0 1 15.66,17.57 2.54,2.54 0 0 0 17.07,18 H 18 a 4,4 0 0 1 3.74,2.64 L 24.94,17 A 5,5 0 0 1 31.47,16.13 1.16,1.16 0 0 1 32,16.8 Z"
     id="path1"
     style="fill:#805d4c;fill-opacity:1" />
  <path
     class="cls-2"
     d="m 16,1 h 4 V 4 A 1,1 0 0 1 19,5 H 17 A 1,1 0 0 1 16,4 Z"
     id="path2"
     style="fill:#ff9966;fill-opacity:1" />
  <path
     class="cls-1"
     d="M 22,14 H 14 A 3,3 0 0 1 11,11 V 3 a 3,3 0 0 1 3,-3 h 8 a 3,3 0 0 1 3,3 v 8 a 3,3 0 0 1 -3,3 z M 14,2 a 1,1 0 0 0 -1,1 v 8 a 1,1 0 0 0 1,1 h 8 a 1,1 0 0 0 1,-1 V 3 A 1,1 0 0 0 22,2 Z"
     id="path3"
     style="fill:#805d4c;fill-opacity:1" />
</svg>
