<?xml version="1.0" encoding="UTF-8" standalone="no"?>
<!-- Uploaded to: SVG Repo, www.svgrepo.com, Generator: SVG Repo Mixer Tools -->

<svg
   width="800px"
   height="800px"
   viewBox="0 0 32 32"
   version="1.1"
   id="svg7"
   sodipodi:docname="calidad.svg"
   inkscape:version="1.4.2 (1:1.4.2+202505120737+ebf0e940d0)"
   xmlns:inkscape="http://www.inkscape.org/namespaces/inkscape"
   xmlns:sodipodi="http://sodipodi.sourceforge.net/DTD/sodipodi-0.dtd"
   xmlns="http://www.w3.org/2000/svg"
   xmlns:svg="http://www.w3.org/2000/svg">
  <sodipodi:namedview
     id="namedview7"
     pagecolor="#ffffff"
     bordercolor="#000000"
     borderopacity="0.25"
     inkscape:showpageshadow="2"
     inkscape:pageopacity="0.0"
     inkscape:pagecheckerboard="0"
     inkscape:deskcolor="#d1d1d1"
     inkscape:zoom="1.00375"
     inkscape:cx="399.50187"
     inkscape:cy="400"
     inkscape:window-width="1920"
     inkscape:window-height="1012"
     inkscape:window-x="0"
     inkscape:window-y="0"
     inkscape:window-maximized="1"
     inkscape:current-layer="svg7" />
  <defs
     id="defs1">
    <style
       id="style1">.cls-1{fill:#04009a;}.cls-2{fill:#77acf1;}</style>
  </defs>
  <path
     class="cls-1"
     d="M 24,6 H 22 A 2,2 0 0 0 20,4 H 19 V 3 A 3,3 0 0 0 13,3 V 4 H 12 A 2,2 0 0 0 10,6 H 8 A 3,3 0 0 0 5,9 v 20 a 3,3 0 0 0 3,3 h 9 a 1,1 0 0 0 0,-2 H 8 A 1,1 0 0 1 7,29 V 9 A 1,1 0 0 1 8,8 h 2 a 2,2 0 0 0 2,2 h 8 a 2,2 0 0 0 2,-2 h 2 a 1,1 0 0 1 1,1 v 8 a 1,1 0 0 0 2,0 V 9 A 3,3 0 0 0 24,6 Z M 15,3 a 1,1 0 0 1 2,0 V 4 H 15 Z M 12,8 V 6 h 8 v 1 0 1 z"
     id="path1"
     style="fill:#805d4c;fill-opacity:1" />
  <path
     class="cls-2"
     d="M 17,24 A 1,1 0 1 1 17.71,23.71 1.05,1.05 0 0 1 17,24 Z"
     id="path2"
     style="fill:#ff9966;fill-opacity:1" />
  <path
     class="cls-2"
     d="m 11,25 a 1,1 0 0 1 -0.71,-0.29 l -1,-1 a 1.0040916,1.0040916 0 0 1 1.42,-1.42 l 0.29,0.3 1.29,-1.3 a 1.0040916,1.0040916 0 0 1 1.42,1.42 l -2,2 A 1,1 0 0 1 11,25 Z"
     id="path3"
     style="fill:#ff9966;fill-opacity:1" />
  <path
     class="cls-2"
     d="m 22,16 h -5 a 1,1 0 0 1 0,-2 h 5 a 1,1 0 0 1 0,2 z"
     id="path4"
     style="fill:#ff9966;fill-opacity:1" />
  <path
     class="cls-2"
     d="m 11,17 a 1,1 0 0 1 -0.71,-0.29 l -1,-1 a 1.0040916,1.0040916 0 0 1 1.42,-1.42 l 0.29,0.3 1.29,-1.3 a 1.0040916,1.0040916 0 0 1 1.42,1.42 l -2,2 A 1,1 0 0 1 11,17 Z"
     id="path5"
     style="fill:#ff9966;fill-opacity:1" />
  <path
     class="cls-2"
     d="m 24,21 h 4 v 3 a 1,1 0 0 1 -1,1 h -2 a 1,1 0 0 1 -1,-1 z"
     id="path6"
     style="fill:#ff9966;fill-opacity:1" />
  <path
     class="cls-1"
     d="m 29,32 h -6 a 3,3 0 0 1 -3,-3 v -6 a 3,3 0 0 1 3,-3 h 6 a 3,3 0 0 1 3,3 v 6 a 3,3 0 0 1 -3,3 z M 23,22 a 1,1 0 0 0 -1,1 v 6 a 1,1 0 0 0 1,1 h 6 a 1,1 0 0 0 1,-1 v -6 a 1,1 0 0 0 -1,-1 z"
     id="path7"
     style="fill:#805d4c;fill-opacity:1" />
</svg>
