<?xml version="1.0" encoding="UTF-8" standalone="no"?>
<!-- Uploaded to: SVG Repo, www.svgrepo.com, Generator: SVG Repo Mixer Tools -->

<svg
   width="800px"
   height="800px"
   viewBox="0 0 24 24"
   fill="none"
   version="1.1"
   id="svg4"
   sodipodi:docname="cart-large-2-svgrepo-com.svg"
   inkscape:version="1.4.2 (1:1.4.2+202505120737+ebf0e940d0)"
   xmlns:inkscape="http://www.inkscape.org/namespaces/inkscape"
   xmlns:sodipodi="http://sodipodi.sourceforge.net/DTD/sodipodi-0.dtd"
   xmlns="http://www.w3.org/2000/svg"
   xmlns:svg="http://www.w3.org/2000/svg">
  <defs
     id="defs4" />
  <sodipodi:namedview
     id="namedview4"
     pagecolor="#ffffff"
     bordercolor="#000000"
     borderopacity="0.25"
     inkscape:showpageshadow="2"
     inkscape:pageopacity="0.0"
     inkscape:pagecheckerboard="0"
     inkscape:deskcolor="#d1d1d1"
     inkscape:zoom="0.665"
     inkscape:cx="399.24812"
     inkscape:cy="399.24812"
     inkscape:window-width="1920"
     inkscape:window-height="1012"
     inkscape:window-x="0"
     inkscape:window-y="0"
     inkscape:window-maximized="1"
     inkscape:current-layer="svg4" />
  <path
     d="M2 3L2.26491 3.0883C3.58495 3.52832 4.24497 3.74832 4.62248 4.2721C5 4.79587 5 5.49159 5 6.88304V9.5C5 12.3284 5 13.7426 5.87868 14.6213C6.75736 15.5 8.17157 15.5 11 15.5H19"
     stroke="#1C274C"
     stroke-width="1.5"
     stroke-linecap="round"
     id="path1"
     style="stroke:#faf4ef;stroke-opacity:1" />
  <path
     opacity="0.5"
     d="M7.5 18C8.32843 18 9 18.6716 9 19.5C9 20.3284 8.32843 21 7.5 21C6.67157 21 6 20.3284 6 19.5C6 18.6716 6.67157 18 7.5 18Z"
     stroke="#1C274C"
     stroke-width="1.5"
     id="path2"
     style="stroke:#faf4ef;stroke-opacity:1;opacity:1" />
  <path
     opacity="0.5"
     d="M16.5 18.0001C17.3284 18.0001 18 18.6716 18 19.5001C18 20.3285 17.3284 21.0001 16.5 21.0001C15.6716 21.0001 15 20.3285 15 19.5001C15 18.6716 15.6716 18.0001 16.5 18.0001Z"
     stroke="#1C274C"
     stroke-width="1.5"
     id="path3"
     style="stroke:#faf4ef;stroke-opacity:1;opacity:1" />
  <path
     d="M5 6H16.4504C18.5054 6 19.5328 6 19.9775 6.67426C20.4221 7.34853 20.0173 8.29294 19.2078 10.1818L18.7792 11.1818C18.4013 12.0636 18.2123 12.5045 17.8366 12.7523C17.4609 13 16.9812 13 16.0218 13H5"
     stroke="#1C274C"
     stroke-width="1.5"
     id="path4"
     style="fill:none;fill-opacity:1;stroke:#faf4ef;stroke-opacity:1" />
</svg>
