<?xml version="1.0" encoding="UTF-8" standalone="no"?>
<!-- Uploaded to: SVG Repo, www.svgrepo.com, Generator: SVG Repo Mixer Tools -->

<svg
   width="800px"
   height="800px"
   viewBox="0 0 32 32"
   version="1.1"
   id="svg2"
   sodipodi:docname="flete.svg"
   inkscape:version="1.4.2 (1:1.4.2+202505120737+ebf0e940d0)"
   xmlns:inkscape="http://www.inkscape.org/namespaces/inkscape"
   xmlns:sodipodi="http://sodipodi.sourceforge.net/DTD/sodipodi-0.dtd"
   xmlns="http://www.w3.org/2000/svg"
   xmlns:svg="http://www.w3.org/2000/svg">
  <sodipodi:namedview
     id="namedview2"
     pagecolor="#ffffff"
     bordercolor="#000000"
     borderopacity="0.25"
     inkscape:showpageshadow="2"
     inkscape:pageopacity="0.0"
     inkscape:pagecheckerboard="0"
     inkscape:deskcolor="#d1d1d1"
     inkscape:zoom="1.00375"
     inkscape:cx="399.50187"
     inkscape:cy="400"
     inkscape:window-width="1920"
     inkscape:window-height="1012"
     inkscape:window-x="0"
     inkscape:window-y="0"
     inkscape:window-maximized="1"
     inkscape:current-layer="svg2" />
  <defs
     id="defs1">
    <style
       id="style1">.cls-1{fill:#77acf1;}.cls-2{fill:#04009a;}</style>
  </defs>
  <path
     class="cls-1"
     d="m 7,5 h 6 V 8.88 A 1.12,1.12 0 0 1 11.88,10 H 8.12 A 1.12,1.12 0 0 1 7,8.88 Z"
     id="path1"
     style="fill:#ff9966;fill-opacity:1" />
  <path
     class="cls-2"
     d="M 31.41,17 29.87,15.46 28.18,10.37 A 2,2 0 0 0 26.28,9 H 20 V 7 A 3,3 0 0 0 17,4 H 3 A 3,3 0 0 0 0,7 v 15 a 3,3 0 0 0 3,3 h 1.14 a 4,4 0 1 0 0,-2 H 3 A 1,1 0 0 1 2,22 V 7 A 1,1 0 0 1 3,6 h 14 a 1,1 0 0 1 1,1 v 16 h -3 a 1,1 0 0 0 0,2 h 6.14 a 4,4 0 0 0 7.72,0 H 30 a 2,2 0 0 0 2,-2 V 18.41 A 2,2 0 0 0 31.41,17 Z M 8,22 A 2,2 0 1 1 6,24 2,2 0 0 1 8,22 Z M 27.61,15 H 24 v -4 h 2.28 z M 25,26 a 2,2 0 1 1 2,-2 2,2 0 0 1 -2,2 z m 5,-3 h -1.14 a 4,4 0 0 0 -7.72,0 H 20 V 11 h 2 v 5 a 1,1 0 0 0 1,1 h 5.59 L 30,18.41 Z"
     id="path2"
     style="fill:#805d4c;fill-opacity:1" />
</svg>
