<?xml version="1.0" encoding="UTF-8" standalone="no"?>
<!-- Uploaded to: SVG Repo, www.svgrepo.com, Generator: SVG Repo Mixer Tools -->

<svg
   width="800px"
   height="800px"
   viewBox="0 0 32 32"
   version="1.1"
   id="svg3"
   sodipodi:docname="pago.svg"
   inkscape:version="1.4.2 (1:1.4.2+202505120737+ebf0e940d0)"
   xmlns:inkscape="http://www.inkscape.org/namespaces/inkscape"
   xmlns:sodipodi="http://sodipodi.sourceforge.net/DTD/sodipodi-0.dtd"
   xmlns="http://www.w3.org/2000/svg"
   xmlns:svg="http://www.w3.org/2000/svg">
  <sodipodi:namedview
     id="namedview3"
     pagecolor="#ffffff"
     bordercolor="#000000"
     borderopacity="0.25"
     inkscape:showpageshadow="2"
     inkscape:pageopacity="0.0"
     inkscape:pagecheckerboard="0"
     inkscape:deskcolor="#d1d1d1"
     inkscape:zoom="1.00375"
     inkscape:cx="399.50187"
     inkscape:cy="400"
     inkscape:window-width="1920"
     inkscape:window-height="1012"
     inkscape:window-x="0"
     inkscape:window-y="0"
     inkscape:window-maximized="1"
     inkscape:current-layer="svg3" />
  <defs
     id="defs1">
    <style
       id="style1">.cls-1{fill:#04009a;}.cls-2{fill:#77acf1;}</style>
  </defs>
  <path
     class="cls-1"
     d="M 16,32 A 1.19,1.19 0 0 1 15.68,31.95 18.53,18.53 0 0 1 3,14.35 V 6 A 1,1 0 0 1 4,5 15.75,15.75 0 0 0 15.24,0.34 1.13,1.13 0 0 1 16,0 V 0 A 1,1 0 0 1 16.73,0.27 15.83,15.83 0 0 0 28,5 1,1 0 0 1 29,6 v 8.35 A 18.53,18.53 0 0 1 16.32,32 1.19,1.19 0 0 1 16,32 Z M 5,7 v 7.38 A 16.53,16.53 0 0 0 16,29.94 16.53,16.53 0 0 0 27,14.35 V 7 A 17.72,17.72 0 0 1 16,2.38 17.75,17.75 0 0 1 5,7 Z"
     id="path1"
     style="fill:#805d4c;fill-opacity:1" />
  <path
     class="cls-2"
     d="m 14,10 h 4 v 3.18 A 0.82,0.82 0 0 1 17.18,14 H 14.82 A 0.82,0.82 0 0 1 14,13.18 Z"
     id="path2"
     style="fill:#ff9966;fill-opacity:1" />
  <path
     class="cls-1"
     d="M 20.29,23 H 11.71 A 2.72,2.72 0 0 1 9,20.29 V 11.71 A 2.72,2.72 0 0 1 11.71,9 h 8.58 A 2.72,2.72 0 0 1 23,11.71 v 8.58 A 2.72,2.72 0 0 1 20.29,23 Z M 11.71,11 A 0.71,0.71 0 0 0 11,11.71 v 8.58 A 0.71,0.71 0 0 0 11.71,21 h 8.58 A 0.71,0.71 0 0 0 21,20.29 V 11.71 A 0.71,0.71 0 0 0 20.29,11 Z"
     id="path3"
     style="fill:#805d4c;fill-opacity:1" />
</svg>
